<svg width="788" height="486" viewBox="0 0 788 486" fill="none" xmlns="http://www.w3.org/2000/svg">
<path opacity="0.1" d="M787.82 312.501C787.833 325.642 786.246 338.736 783.092 351.492C782.031 355.79 780.798 359.999 779.394 364.118C777.676 369.203 775.684 374.191 773.429 379.061C772.292 381.525 771.091 383.939 769.825 386.305C769.845 399.78 767.074 413.114 761.686 425.463C751.947 447.619 734.579 465.533 712.75 475.942C699.101 482.461 684.185 485.89 669.062 485.984H149.712C126.605 486.033 103.897 479.956 83.8966 468.37L83.589 468.196C80.7403 466.526 77.9629 464.759 75.2568 462.893C69.1683 458.682 63.448 453.961 58.1578 448.781C50.9974 441.775 44.6879 433.949 39.3602 425.463C26.8471 405.571 20.2184 382.538 20.2416 359.03C7.56948 336.77 0.180176 310.104 0.180176 281.451C0.180176 245.299 11.9228 212.32 31.2152 187.355C35.2373 182.139 39.6431 177.232 44.3956 172.673C49.0849 168.162 54.1251 164.032 59.4685 160.321C63.7436 157.349 68.2115 154.665 72.8428 152.287C74.7753 151.303 76.7146 150.373 78.6873 149.509C80.4193 148.739 82.1713 148.023 83.9434 147.347C86.0699 146.539 88.2232 145.796 90.4032 145.117C92.5832 144.439 94.7343 143.845 96.8563 143.337C99.977 142.573 103.151 141.953 106.379 141.475C109.054 141.08 111.729 140.806 114.403 140.598C116.53 140.438 118.676 140.351 120.836 140.324H122.007C124.387 140.324 126.755 140.418 129.102 140.578C129.349 140.083 129.617 139.581 129.864 139.092C130.8 137.304 131.77 135.524 132.746 133.783C132.744 133.767 132.744 133.752 132.746 133.736C132.913 133.428 133.081 133.127 133.254 132.832C134.044 131.406 134.866 129.994 135.709 128.595C136.097 127.925 136.478 127.296 136.872 126.666C136.956 126.51 137.047 126.358 137.146 126.211C137.548 125.542 137.956 124.872 138.37 124.203C140.434 120.9 142.581 117.655 144.81 114.468L145.378 113.652C145.726 113.156 146.047 112.674 146.435 112.179C147.358 110.887 148.307 109.588 149.264 108.316C149.932 107.405 150.601 106.502 151.323 105.638C153.062 103.406 154.845 101.175 156.673 98.9432C158.501 96.7116 160.4 94.509 162.37 92.3354C162.638 92.0341 162.905 91.7396 163.186 91.445L166.042 88.3252C166.182 88.1779 166.302 88.044 166.436 87.9101C166.777 87.5419 167.105 87.1737 167.473 86.8189C169.004 85.192 170.575 83.5987 172.154 82.012C180.185 74.0033 188.742 66.5399 197.765 59.6714C198.12 59.3902 198.481 59.1224 198.835 58.8546C200.534 57.5759 202.259 56.3106 203.984 55.0654C213.474 48.2497 223.394 42.0552 233.682 36.5207C234.391 36.1123 235.113 35.7307 235.842 35.3558C245.065 30.4707 254.551 26.099 264.256 22.2608C269.545 20.1653 274.955 18.197 280.399 16.3961C284.023 15.2044 287.661 14.073 291.345 13.0085C297.105 11.3482 302.905 9.85974 308.745 8.54309C325.951 4.67808 343.454 2.29052 361.066 1.40642C366.415 1.13416 371.825 0.993574 377.295 0.984648C403.69 0.949665 429.981 4.27921 455.535 10.893C455.799 11.2927 456.161 11.6186 456.585 11.8399C457.01 12.0613 457.484 12.1709 457.962 12.1583H460.209C461.186 12.4261 462.155 12.6939 463.132 12.9751C468.584 14.5461 473.958 16.2622 479.254 18.1234L480.592 18.6054C493.664 23.2589 506.382 28.8525 518.648 35.3424C529.705 41.1787 540.352 47.7638 550.513 55.052C552.077 56.1767 553.62 57.3104 555.14 58.4529C556.986 57.2702 558.863 56.1365 560.771 55.052C568.139 50.8506 575.966 47.5103 584.096 45.0968C601.093 40.0611 619.078 39.3569 636.416 43.0482C658.651 47.768 678.779 59.4839 695.035 76.1473C701.655 82.9652 707.546 90.4547 712.616 98.4946C712.984 99.0704 713.351 99.6528 713.706 100.242C718.063 107.358 721.808 114.832 724.9 122.583C725.014 122.87 725.128 123.138 725.228 123.419C728.083 130.677 730.385 138.141 732.116 145.747C732.196 146.135 732.29 146.517 732.37 146.905C733.988 154.265 735.088 161.731 735.66 169.245C735.66 169.513 735.66 169.788 735.713 170.069C735.994 173.956 736.137 177.884 736.141 181.852C736.141 185.4 736.021 188.922 735.8 192.416C735.8 192.798 735.747 193.193 735.713 193.588C735.653 194.599 735.566 195.596 735.479 196.614C740.587 200.738 745.367 205.253 749.776 210.117C751.725 212.246 753.61 214.456 755.434 216.745C760.988 223.714 765.869 231.194 770.012 239.086C781.32 260.456 787.82 285.595 787.82 312.501Z" fill="#6C63FF"/>
<path opacity="0.1" d="M683.251 474.599C683.251 478.751 668.95 482.641 643.994 485.984H171.965C150.963 486.029 130.325 480.511 112.147 469.991L111.867 469.833C119.039 467.22 131.985 464.782 149.604 462.582L150.395 462.484C158.296 461.518 167.127 460.6 176.778 459.731C177.022 459.731 177.271 459.694 177.514 459.664C185.172 458.983 193.318 458.345 201.953 457.749C202.226 457.749 202.494 457.7 202.767 457.688C206.098 457.449 209.498 457.222 212.966 457.007L214.303 456.922C239.556 455.354 268.262 454.102 299.393 453.275H299.429C303.789 453.154 308.195 453.046 312.648 452.953C317.6 452.836 322.612 452.732 327.685 452.643C331.557 452.558 335.477 452.497 339.409 452.436H339.5C357.242 452.169 375.572 452.035 394.316 452.035C440.666 452.035 484.475 452.88 523.294 454.4H523.404C529.372 454.631 535.231 454.886 540.944 455.147L545.806 455.378C552.253 455.686 558.533 456.017 564.648 456.369C636.549 460.46 683.251 467.104 683.251 474.599Z" fill="#6C63FF"/>
<g opacity="0.2">
<path opacity="0.2" d="M449.533 449.244C449.514 449.9 449.439 450.553 449.308 451.196C445.078 450.523 440.824 449.915 436.545 449.372C436.545 449.202 436.545 449.026 436.545 448.849C436.585 447.027 437.109 445.247 438.064 443.695C439.316 441.713 441.219 440.473 443.316 440.54C445.412 440.607 447.23 441.962 448.354 444.011C449.205 445.62 449.612 447.426 449.533 449.244V449.244Z" fill="#3F3D56"/>
<path opacity="0.2" d="M449.882 438.858C450.031 434.157 447.241 430.254 443.651 430.14C440.061 430.027 437.031 433.746 436.882 438.447C436.734 443.148 439.523 447.051 443.113 447.164C446.703 447.278 449.734 443.559 449.882 438.858Z" fill="#3F3D56"/>
<path opacity="0.2" d="M450.214 428.45C450.362 423.749 447.573 419.846 443.983 419.732C440.393 419.619 437.362 423.338 437.214 428.039C437.065 432.74 439.855 436.643 443.445 436.756C447.035 436.87 450.065 433.151 450.214 428.45Z" fill="#3F3D56"/>
<path opacity="0.2" d="M450.54 418.043C450.688 413.342 447.898 409.44 444.308 409.326C440.719 409.213 437.688 412.932 437.539 417.633C437.391 422.334 440.181 426.237 443.771 426.35C447.36 426.463 450.391 422.745 450.54 418.043Z" fill="#3F3D56"/>
<path opacity="0.2" d="M450.865 407.637C451.013 402.936 448.223 399.033 444.634 398.92C441.044 398.806 438.013 402.525 437.865 407.226C437.716 411.927 440.506 415.83 444.096 415.944C447.686 416.057 450.716 412.338 450.865 407.637Z" fill="#3F3D56"/>
<path opacity="0.2" d="M422.244 335.428C421.388 334.269 420.616 333.05 419.934 331.781L437.11 329.514L418.621 329.07C416.971 325.156 416.137 320.946 416.169 316.699C416.202 312.451 417.1 308.255 418.81 304.366L443.194 318.013L420.858 300.482C423.111 296.837 426.092 293.696 429.613 291.255C433.135 288.814 437.122 287.125 441.325 286.295C445.528 285.464 449.858 285.509 454.043 286.427C458.228 287.344 462.18 289.116 465.65 291.629C469.12 294.143 472.034 297.345 474.211 301.036C476.388 304.727 477.781 308.827 478.303 313.081C478.824 317.334 478.463 321.649 477.242 325.757C476.021 329.864 473.967 333.676 471.207 336.954C472.538 338.757 473.669 340.699 474.58 342.747L452.037 353.567L475.941 346.376C477.447 351.344 477.689 356.608 476.647 361.694C475.605 366.779 473.311 371.524 469.973 375.499C473.443 380.208 475.519 385.799 475.962 391.632C476.405 397.466 475.197 403.306 472.477 408.486C469.758 413.665 465.635 417.975 460.582 420.921C455.529 423.868 449.748 425.333 443.902 425.148C438.055 424.964 432.378 423.138 427.521 419.879C422.663 416.62 418.821 412.059 416.432 406.718C414.044 401.378 413.207 395.473 414.017 389.679C414.826 383.885 417.25 378.436 421.01 373.955C416.864 368.327 414.729 361.468 414.95 354.481C415.17 347.494 417.733 340.783 422.225 335.428H422.244Z" fill="#6C63FF"/>
<path opacity="0.1" d="M477.266 356.447C477.054 363.438 474.483 370.152 469.973 375.498C473.443 380.207 475.519 385.798 475.962 391.632C476.405 397.465 475.197 403.305 472.477 408.485C469.758 413.664 465.635 417.974 460.582 420.92C455.529 423.867 449.748 425.332 443.902 425.148C438.055 424.963 432.378 423.137 427.521 419.878C422.663 416.619 418.821 412.058 416.432 406.718C414.044 401.377 413.207 395.472 414.017 389.678C414.826 383.884 417.25 378.435 421.01 373.954C417.017 368.525 477.376 352.952 477.266 356.447Z" fill="black"/>
</g>
<g opacity="0.2">
<path opacity="0.2" d="M357.15 449.244C357.131 449.9 357.056 450.553 356.926 451.196C352.695 450.523 348.441 449.915 344.162 449.372C344.162 449.202 344.162 449.026 344.162 448.849C344.202 447.027 344.726 445.247 345.682 443.695C346.934 441.713 348.836 440.473 350.933 440.54C353.03 440.607 354.847 441.962 355.971 444.011C356.822 445.62 357.229 447.426 357.15 449.244V449.244Z" fill="#3F3D56"/>
<path opacity="0.2" d="M357.493 438.86C357.641 434.159 354.851 430.256 351.262 430.142C347.672 430.029 344.641 433.748 344.493 438.449C344.344 443.15 347.134 447.053 350.724 447.166C354.314 447.28 357.344 443.561 357.493 438.86Z" fill="#3F3D56"/>
<path opacity="0.2" d="M357.825 428.454C357.973 423.753 355.183 419.85 351.594 419.736C348.004 419.623 344.973 423.342 344.825 428.043C344.676 432.744 347.466 436.647 351.056 436.76C354.646 436.874 357.676 433.155 357.825 428.454Z" fill="#3F3D56"/>
<path opacity="0.2" d="M358.15 418.045C358.298 413.344 355.509 409.441 351.919 409.328C348.329 409.215 345.298 412.934 345.15 417.635C345.001 422.336 347.791 426.238 351.381 426.352C354.971 426.465 358.001 422.746 358.15 418.045Z" fill="#3F3D56"/>
<path opacity="0.2" d="M358.476 407.639C358.624 402.938 355.834 399.035 352.244 398.922C348.655 398.808 345.624 402.527 345.475 407.228C345.327 411.929 348.117 415.832 351.707 415.946C355.296 416.059 358.327 412.34 358.476 407.639Z" fill="#3F3D56"/>
<path opacity="0.2" d="M329.861 335.428C329.005 334.269 328.233 333.05 327.551 331.781L344.727 329.514L326.238 329.07C324.588 325.156 323.754 320.946 323.787 316.699C323.819 312.451 324.717 308.255 326.427 304.366L350.811 318.013L328.475 300.482C330.728 296.837 333.709 293.696 337.23 291.255C340.752 288.814 344.739 287.125 348.942 286.295C353.146 285.464 357.475 285.509 361.66 286.427C365.846 287.344 369.797 289.116 373.267 291.629C376.737 294.143 379.651 297.345 381.829 301.036C384.006 304.727 385.398 308.827 385.92 313.081C386.441 317.334 386.08 321.649 384.859 325.757C383.639 329.864 381.584 333.676 378.824 336.954C380.155 338.757 381.286 340.699 382.197 342.747L359.654 353.567L383.558 346.376C385.064 351.344 385.306 356.608 384.264 361.694C383.222 366.779 380.928 371.524 377.59 375.499C381.061 380.208 383.136 385.799 383.579 391.632C384.022 397.466 382.814 403.306 380.095 408.486C377.375 413.665 373.253 417.975 368.199 420.921C363.146 423.868 357.366 425.333 351.519 425.148C345.672 424.964 339.996 423.138 335.138 419.879C330.28 416.62 326.438 412.059 324.05 406.718C321.662 401.378 320.824 395.473 321.634 389.679C322.443 383.885 324.867 378.436 328.627 373.955C324.481 368.327 322.346 361.468 322.567 354.481C322.787 347.494 325.35 340.783 329.843 335.428H329.861Z" fill="#6C63FF"/>
<path opacity="0.1" d="M384.883 356.447C384.671 363.438 382.1 370.152 377.59 375.498C381.061 380.207 383.136 385.798 383.579 391.632C384.022 397.465 382.814 403.305 380.095 408.485C377.375 413.664 373.253 417.974 368.199 420.92C363.146 423.867 357.366 425.332 351.519 425.148C345.672 424.963 339.996 423.137 335.138 419.878C330.28 416.619 326.438 412.058 324.05 406.718C321.662 401.377 320.824 395.472 321.634 389.678C322.443 383.884 324.867 378.435 328.627 373.954C324.634 368.525 384.993 352.952 384.883 356.447Z" fill="black"/>
</g>
<g opacity="0.2">
<path opacity="0.2" d="M609.502 455.894C609.456 457.136 609.307 458.372 609.058 459.589C600.914 458.289 592.711 457.126 584.449 456.1C584.449 455.772 584.449 455.438 584.449 455.097C584.526 451.587 585.538 448.161 587.379 445.171C589.81 441.36 593.457 438.971 597.486 439.092C601.516 439.214 605.023 441.834 607.211 445.779C608.861 448.886 609.652 452.378 609.502 455.894V455.894Z" fill="#3F3D56"/>
<path opacity="0.2" d="M610.163 435.882C610.449 426.829 605.076 419.313 598.161 419.094C591.246 418.876 585.409 426.037 585.123 435.09C584.837 444.144 590.21 451.66 597.125 451.878C604.04 452.097 609.877 444.935 610.163 435.882Z" fill="#3F3D56"/>
<path opacity="0.2" d="M610.795 415.847C611.081 406.794 605.707 399.277 598.792 399.059C591.878 398.84 586.04 406.002 585.754 415.055C585.468 424.108 590.842 431.624 597.757 431.843C604.671 432.062 610.509 424.9 610.795 415.847Z" fill="#3F3D56"/>
<path opacity="0.2" d="M611.433 395.81C611.719 386.756 606.345 379.24 599.431 379.022C592.516 378.803 586.678 385.965 586.392 395.018C586.106 404.071 591.48 411.587 598.395 411.806C605.309 412.024 611.147 404.863 611.433 395.81Z" fill="#3F3D56"/>
<path opacity="0.2" d="M611.352 374.863C611.624 365.806 606.236 358.295 599.317 358.087C592.399 357.88 586.571 365.054 586.299 374.112C586.027 383.169 591.415 390.68 598.334 390.888C605.252 391.095 611.08 383.921 611.352 374.863Z" fill="#3F3D56"/>
<path opacity="0.2" d="M556.959 236.783C555.319 234.552 553.835 232.21 552.516 229.775L585.58 225.41L549.994 224.553C546.815 217.019 545.207 208.915 545.268 200.737C545.328 192.56 547.056 184.48 550.346 176.994L597.298 203.26L554.303 169.511C558.65 162.511 564.393 156.481 571.172 151.798C577.951 147.114 585.622 143.878 593.707 142.289C601.792 140.701 610.118 140.795 618.165 142.566C626.212 144.336 633.808 147.746 640.479 152.581C647.151 157.416 652.756 163.574 656.944 170.671C661.132 177.767 663.814 185.651 664.822 193.829C665.83 202.008 665.143 210.307 662.804 218.208C660.465 226.109 656.524 233.444 651.226 239.756C653.787 243.229 655.965 246.969 657.724 250.91L614.322 271.754L660.337 257.895C663.237 267.447 663.709 277.571 661.711 287.352C659.713 297.133 655.307 306.261 648.892 313.909C655.572 322.976 659.567 333.739 660.418 344.969C661.27 356.198 658.945 367.441 653.709 377.411C648.473 387.382 640.537 395.677 630.809 401.349C621.081 407.021 609.954 409.841 598.699 409.486C587.444 409.131 576.516 405.616 567.165 399.342C557.814 393.069 550.416 384.29 545.819 374.009C541.221 363.729 539.609 352.362 541.166 341.208C542.723 330.055 547.388 319.564 554.625 310.937C546.648 300.103 542.541 286.902 542.964 273.453C543.387 260.005 548.316 247.088 556.959 236.777V236.783Z" fill="#6C63FF"/>
<path opacity="0.1" d="M662.895 277.243C662.497 290.695 657.571 303.618 648.916 313.922C655.596 322.988 659.59 333.752 660.442 344.981C661.294 356.211 658.969 367.454 653.733 377.424C648.497 387.394 640.561 395.69 630.833 401.362C621.105 407.034 609.978 409.854 598.723 409.499C587.468 409.144 576.54 405.629 567.189 399.355C557.838 393.081 550.44 384.302 545.843 374.022C541.245 363.742 539.633 352.375 541.19 341.221C542.747 330.067 547.411 319.577 554.649 310.95C546.906 300.488 663.108 270.514 662.895 277.243Z" fill="black"/>
</g>
<path d="M131.991 456.965L138.366 456.946H147.355L158.721 272.289L271.277 84.4407L266.384 79.1888V65.8887L144.657 267.937L131.991 456.965Z" fill="#F1C0C0"/>
<path opacity="0.1" d="M139.047 456.947H147.355L158.721 272.29L271.276 84.4414L266.384 79.1895L150.285 269.475L139.047 456.947Z" fill="black"/>
<path d="M113.204 458.503L404.849 480.824L405.098 480.842L687.347 463.481L687.56 463.469V451.549L376.557 445.841L117.088 445.592H115.192L114.985 446.929L113.204 458.503Z" fill="#F1C0C0"/>
<path opacity="0.1" d="M113.204 458.503L404.849 480.824L405.098 480.842L687.347 463.481L687.56 463.25V451.798H687.31L404.849 461.232L117.088 445.592H117.045L116.535 445.926L114.985 446.929L113.204 458.503Z" fill="black"/>
<path opacity="0.1" d="M113.204 458.502L404.849 480.823V461.232L116.535 445.926L114.985 446.929L113.204 458.502Z" fill="black"/>
<path d="M266.347 78.9403L394.924 216.962L390.949 459.743L401.871 461.062L402.053 461.087H412.975L414.282 227.387L655.043 307.82L659.103 451.033L667.892 452.017L670.87 452.352L663.977 297.887L412.294 209.516L274.291 66.0293H266.347V78.9403Z" fill="#F1C0C0"/>
<path opacity="0.1" d="M413.291 222.918L414.282 227.386L655.043 307.818L659.103 451.031L667.892 452.016L660.999 304.84L413.291 222.918Z" fill="black"/>
<path opacity="0.1" d="M266.347 78.9403L394.924 216.962L390.949 459.743L401.871 461.062L404.849 209.017L266.347 66.0293V78.9403Z" fill="black"/>
<path d="M413.759 320.354L502.064 337.745L502.094 337.751L656.757 368.223L663.837 365.385L663.813 364.886L663.351 355.008L413.85 304.586L413.759 320.354Z" fill="#F1C0C0"/>
<path opacity="0.1" d="M502.094 337.75L656.757 368.222L663.838 365.384L663.813 364.885L502.094 337.75Z" fill="black"/>
<path d="M508.008 258.697L510.396 390.203L511.63 457.67L522.503 457.305L529.347 457.074L527.22 260.6L522.503 259.032L521.47 258.697H508.008Z" fill="#F1C0C0"/>
<path opacity="0.1" d="M508.105 258.668V258.698L510.397 390.204L511.631 457.671L522.504 457.306V258.668H508.105Z" fill="black"/>
<path d="M337.689 292.282C338.327 292.629 338.937 293.025 339.512 293.467C340.193 294.063 340.805 294.734 341.336 295.467C343.943 298.841 346.35 302.762 346.095 307.017C346.1 307.636 345.983 308.25 345.751 308.824C345.518 309.397 345.174 309.919 344.739 310.36C343.664 311.278 342.12 311.32 340.71 311.32C339.178 311.32 337.567 311.32 336.243 310.53C334.918 309.74 333.811 308.202 332.243 308.238C332.022 308.275 331.796 308.275 331.575 308.238C331.034 308.062 330.924 307.351 330.572 306.901C329.964 306.093 328.682 306.293 327.727 306.646C326.773 306.998 325.716 307.527 324.774 307.12C324.227 306.831 323.78 306.384 323.491 305.837C321.236 302.19 320.756 297.807 320.331 293.571C320.069 290.993 318.076 282.204 323.576 284.203C326.007 285.079 328.281 286.829 330.493 288.112L337.689 292.282Z" fill="#3F3D56"/>
<path d="M332.255 293.151C332.747 293.504 333.342 293.683 333.947 293.659C334.551 293.634 335.131 293.408 335.592 293.017C336.497 292.199 337.074 291.08 337.215 289.868C337.823 289.68 338.133 290.476 338.522 290.962C339.202 291.789 340.588 291.777 341.208 292.658C341.64 293.266 341.542 294.111 341.846 294.798C342.241 295.685 343.22 296.147 343.888 296.865C344.52 297.648 344.976 298.558 345.225 299.533L346.222 302.524C346.699 303.768 347.006 305.07 347.134 306.396C347.197 307.059 347.127 307.727 346.929 308.363C346.73 308.999 346.408 309.588 345.979 310.098C344.642 311.539 342.448 311.69 340.509 311.648C339.862 311.662 339.215 311.586 338.588 311.423C336.868 310.888 335.768 309.156 335.312 307.411C334.857 305.667 334.905 303.837 334.638 302.05C334.349 300.294 333.838 298.583 333.118 296.956C332.584 295.691 331.113 293.807 331.137 292.464C331.575 292.464 331.891 292.865 332.255 293.151Z" fill="#3F3D56"/>
<path d="M334.437 286.994C334.153 286.13 333.987 285.233 333.945 284.325C333.945 282.501 334.778 280.787 335.616 279.158L328.669 280.1C327.831 280.216 326.895 280.386 326.421 281.085C326.24 281.432 326.146 281.816 326.146 282.207C326.146 282.597 326.24 282.982 326.421 283.328C326.769 284.022 327.046 284.749 327.247 285.498C327.263 286.154 327.338 286.807 327.472 287.449C327.688 287.921 327.991 288.348 328.365 288.708C330.353 290.908 331.842 293.504 333.325 296.075C333.282 296.002 337.513 292.726 337.342 291.656C337.245 291.048 336.024 290.319 335.635 289.735C335.097 288.888 334.693 287.963 334.437 286.994V286.994Z" fill="#BE6F72"/>
<path d="M394 263.244V269.232L291.485 289.23L286.167 292.452H267.818V289.078L368.54 264.739L394 263.244Z" fill="#F1C0C0"/>
<path opacity="0.1" d="M394 269.232L291.485 289.231L286.167 292.453H267.818L369.288 270.734L394 269.232Z" fill="black"/>
<path d="M311.694 433.216C310.552 431.833 308.975 430.877 307.22 430.504C305.466 430.131 303.636 430.363 302.03 431.162C301.686 431.324 301.383 431.56 301.143 431.855C300.535 432.706 300.924 433.879 300.979 434.93C301.119 437.496 299.076 439.581 297.241 441.374C296.256 442.334 295.253 443.362 294.81 444.669C294.366 445.975 294.694 447.635 295.886 448.316C296.405 448.576 296.971 448.733 297.551 448.778C299.494 449.157 301.486 449.212 303.446 448.942C305.385 448.571 307.288 447.471 308.126 445.684C308.288 445.199 308.556 444.757 308.91 444.389C309.98 443.544 311.621 444.535 312.837 443.933C313.84 443.435 313.882 442.65 313.894 441.617C313.931 438.76 313.505 435.526 311.694 433.216Z" fill="#6C63FF"/>
<path d="M326.281 433.105C327.028 435.075 327.132 437.221 327.229 439.324C327.284 440.54 327.32 441.84 326.664 442.868C326.007 443.895 324.725 444.436 323.497 444.691C320.963 445.214 318.027 444.722 316.392 442.71C315.14 441.172 314.879 439.063 315.11 437.069C315.304 435.434 315.717 433.519 314.544 432.358C314.241 432.048 313.846 431.829 313.566 431.495C312.958 430.753 313.055 429.635 313.384 428.723C313.811 427.851 314.131 426.93 314.338 425.981C314.386 425.531 322.567 426.297 323.321 426.668C324.348 427.173 324.19 428.018 324.5 429.039C324.931 430.461 325.758 431.744 326.281 433.105Z" fill="#6C63FF"/>
<path d="M327.782 345.779C329.386 346.819 330.006 348.861 330.256 350.758C330.942 355.955 329.739 361.207 329.648 366.453C329.563 373.802 331.69 381.285 329.873 388.403C328.785 392.658 329.709 397.521 328.688 401.818C328.384 403.095 327.825 404.299 327.533 405.575C326.925 408.341 327.563 411.234 328.42 413.939C328.694 414.668 328.868 415.431 328.937 416.207C328.896 417.401 328.593 418.571 328.049 419.635L324.403 428.261C323.995 429.227 322.391 429.385 321.364 429.513C319.431 429.744 317.273 429.908 315.736 428.71C314.198 427.513 313.827 425.507 313.59 423.635C313.136 420.04 312.932 416.419 312.982 412.796C313.049 411.851 312.965 410.901 312.733 409.982C312.399 408.943 311.664 408.043 311.463 406.943C311.208 405.52 311.931 404.122 312.198 402.688C312.382 401.377 312.361 400.047 312.138 398.743C311.901 396.797 311.627 394.852 311.317 392.919C310.879 390.214 311.506 387.546 311.925 384.835C312.32 382.288 311.815 379.692 311.317 377.163C311.36 379.216 311.104 381.263 310.557 383.242C310.235 384.209 309.773 385.133 309.494 386.117C308.248 390.536 310.904 395.174 310.527 399.752C310.351 401.891 309.512 404.007 309.749 406.116C309.913 407.66 310.63 409.076 311.123 410.547C311.615 412.018 311.87 413.702 311.123 415.076C309.147 418.808 310.624 423.884 312.393 427.713C312.752 428.393 313.065 429.095 313.329 429.817C313.852 431.543 313.414 433.397 313.554 435.196C313.045 435.28 312.523 435.246 312.029 435.097C311.535 434.949 311.082 434.689 310.703 434.339C310.436 434.06 310.217 433.731 309.956 433.44C309.225 432.744 308.361 432.204 307.415 431.853C306.86 431.542 306.227 431.397 305.592 431.434C304.924 431.62 304.323 431.993 303.86 432.51C303.258 433.038 302.621 433.524 301.951 433.962C301.666 434.182 301.333 434.329 300.979 434.394C300.801 434.421 300.619 434.392 300.458 434.31C300.298 434.229 300.167 434.098 300.085 433.938C300.047 433.837 300.025 433.73 300.018 433.622C299.793 431.787 299.673 429.94 299.66 428.09C299.66 424.911 295.855 422.723 295.375 419.58C294.992 417.045 295.703 414.462 295.466 411.909C295.351 410.596 294.986 409.307 295.01 407.994C295.01 407.143 295.205 406.311 295.272 405.466C295.327 404.528 295.313 403.587 295.229 402.651L295.041 399.715C294.858 396.816 294.658 393.855 293.515 391.205C292.16 388.11 291.358 384.802 291.145 381.431C291.023 379.303 291.102 377.176 290.859 375.042C290.64 373.115 290.154 371.2 290.294 369.267C290.409 367.772 290.902 366.325 291.017 364.83C291.254 361.955 290.16 359.158 289.303 356.405C288.446 353.651 287.814 350.6 288.939 347.943C289.099 347.507 289.367 347.119 289.716 346.813C290.148 346.527 290.638 346.344 291.151 346.278C301.579 344.087 312.267 343.405 322.889 344.254C324.621 344.352 326.301 344.876 327.782 345.779Z" fill="#3F3D56"/>
<path d="M293.278 281.218C298.656 281.218 303.015 276.858 303.015 271.48C303.015 266.102 298.656 261.742 293.278 261.742C287.901 261.742 283.542 266.102 283.542 271.48C283.542 276.858 287.901 281.218 293.278 281.218Z" fill="#BE6F72"/>
<path d="M291.394 283.645C291.534 284.202 291.534 284.784 291.394 285.341C291.241 285.73 291.025 286.091 290.756 286.411C289.813 287.627 288.77 288.761 287.638 289.803C288.215 291.091 289.253 292.117 290.549 292.678C291.835 293.226 293.185 293.611 294.566 293.827C295.256 294.008 295.974 294.058 296.682 293.973C297.334 293.809 297.952 293.529 298.505 293.146L303.914 289.906C304.73 289.464 305.486 288.918 306.163 288.283C307.155 287.263 307.717 285.901 307.731 284.478C307.756 284.223 307.687 283.968 307.537 283.761C307.329 283.58 307.069 283.471 306.795 283.451C304.893 283.031 303.391 281.487 302.541 279.736C301.771 277.942 301.274 276.043 301.064 274.102L295.296 277.141C294.439 277.597 293.588 278.053 292.701 278.448C292.135 278.703 290.993 278.916 290.592 279.433C289.826 280.387 291.193 282.496 291.394 283.645Z" fill="#BE6F72"/>
<path d="M287.674 288.032C286.853 288.706 286.212 289.573 285.808 290.555C285.432 291.771 285.808 293.053 286.149 294.257C287.744 299.387 288.963 304.626 289.795 309.934C290.306 313.581 290.494 317.283 290.744 320.973C291.254 328.498 291.996 340.497 292.986 347.974C296.633 348.138 300.189 347.074 303.805 346.685C310.563 345.968 317.523 347.609 324.141 346.077C322.537 339.737 320.932 328.911 319.328 322.577C318.618 320.082 318.125 317.529 317.857 314.949C317.717 313.095 317.802 311.235 317.826 309.368C317.881 305.721 317.681 302.074 317.48 298.427C317.249 294.172 317.018 289.917 316.009 285.753C315.939 285.222 315.69 284.731 315.304 284.361C314.696 283.917 313.906 284.075 313.183 284.172C310.968 284.454 308.727 283.922 306.874 282.677C306.072 282.13 304.996 281.461 304.249 282.069C303.93 282.436 303.719 282.884 303.641 283.364C303.31 284.224 302.799 285.003 302.143 285.65C301.487 286.297 300.701 286.796 299.836 287.114C298.104 287.742 296.29 288.114 294.451 288.221C293.888 288.342 293.301 288.275 292.78 288.032C291.917 287.503 291.856 285.601 290.768 285.473C289.814 285.364 288.319 287.418 287.674 288.032Z" fill="#3F3D56"/>
<path d="M302.054 302.878C299.812 300.732 298.827 297.62 297.192 294.975C296.079 293.197 294.656 291.633 292.992 290.356C292.156 289.803 291.388 289.152 290.707 288.417C290.13 287.705 289.692 286.757 288.817 286.484C288.455 286.405 288.08 286.415 287.723 286.514C287.366 286.612 287.039 286.796 286.769 287.049C286.233 287.56 285.726 288.099 285.249 288.666C282.672 291.334 278.144 291.705 276.102 294.793C275.551 295.448 275.177 296.232 275.014 297.073C274.426 301.567 275.588 306.115 278.26 309.777C278.777 310.626 279.571 311.27 280.508 311.6C280.381 312.734 280.531 313.881 280.946 314.944C282.071 318.791 283.454 322.558 285.085 326.22C284.695 327.652 284.423 329.114 284.271 330.59C283.845 334.304 284.24 338.073 283.839 341.793C283.511 344.832 282.624 347.793 282.593 350.838C282.593 351.324 282.636 351.902 283.055 352.151C283.278 352.266 283.528 352.318 283.778 352.303L291.254 352.528C295.594 352.656 299.976 352.783 304.248 351.981C304.817 351.897 305.369 351.722 305.883 351.464C307.33 350.656 307.81 348.832 308.041 347.209C308.343 345.104 308.463 342.977 308.4 340.851C309.305 343.714 310.381 346.674 313.116 347.914C314.563 348.571 316.216 348.522 317.802 348.48C321.221 348.327 324.628 347.976 328.007 347.428C328.215 347.454 328.426 347.431 328.624 347.36C328.821 347.29 329 347.174 329.144 347.022C329.289 346.87 329.396 346.686 329.457 346.486C329.518 346.285 329.532 346.073 329.496 345.866L329.532 342.547C329.605 335.806 327.934 329.362 327.283 322.652C327.077 320.536 327.095 318.396 326.578 316.324C326.366 315.454 326.056 314.603 325.867 313.728C325.705 312.871 325.604 312.004 325.563 311.132L325.089 304.446C324.864 301.352 324.542 298.367 324.305 295.279C324.175 292.272 323.739 289.287 323.005 286.368C322.476 284.544 321.376 282.478 319.473 282.253C318.458 282.137 317.474 282.581 316.507 282.891C314.132 283.639 311.583 283.628 309.214 282.861C308.482 282.572 307.719 282.368 306.941 282.253C306.549 282.199 306.15 282.251 305.785 282.403C305.419 282.555 305.101 282.801 304.862 283.116C304.626 283.591 304.516 284.118 304.54 284.648C304.255 290.72 303.726 296.975 302.054 302.878Z" fill="#6C63FF"/>
<path d="M292.275 303.059C289.473 300.105 286.599 297.096 282.988 295.218C281.566 294.476 279.949 293.917 278.375 294.196C276.801 294.476 275.336 295.844 275.409 297.442C275.458 298.433 276.06 299.308 276.248 300.281C276.467 301.375 276.151 302.542 276.491 303.6C276.768 304.297 277.181 304.932 277.707 305.466L282.01 310.566C283.833 312.694 285.657 314.852 288.003 316.323C290.349 317.794 293.388 318.481 295.965 317.435C297.798 316.583 299.323 315.183 300.328 313.429C301.398 311.727 302.152 309.867 303.155 308.11C304.716 305.303 306.775 302.805 309.233 300.737C307.968 300.409 306.382 299.947 305.586 298.913C305.359 298.585 305.166 298.235 305.008 297.868L304.024 295.74C303.689 295.723 303.354 295.775 303.04 295.893C302.727 296.011 302.441 296.193 302.2 296.427C301.778 296.915 301.326 297.376 300.845 297.807C299.988 298.451 298.827 298.628 298.049 299.363C297.748 299.679 297.476 300.021 297.235 300.384C296.646 301.158 295.9 301.797 295.044 302.258C294.189 302.719 293.245 302.992 292.275 303.059V303.059Z" fill="#3F3D56"/>
<path d="M309.457 290.349C311.566 286.501 311.469 281.887 312.071 277.541C312.136 276.39 312.54 275.284 313.232 274.362C314.447 272.988 316.593 272.97 318.428 273.146C318.969 273.207 319.644 273.462 319.613 274.003C319.571 274.197 319.476 274.376 319.34 274.52C317.561 276.816 316.515 279.595 316.337 282.495C317.292 283.158 318.768 281.796 319.686 282.495C320.294 283.006 320.014 284.015 319.65 284.744C318.803 286.434 317.93 288.112 317.03 289.777C316.312 291.245 315.376 292.596 314.253 293.783C313.481 294.525 312.575 295.108 311.791 295.838C309.968 297.546 308.868 299.959 306.984 301.624C306.824 301.797 306.609 301.907 306.376 301.935C306.136 301.917 305.91 301.816 305.738 301.649C304.796 300.883 304.016 299.939 303.44 298.871C302.723 297.546 302.832 297.157 303.963 296.221C306.078 294.549 308.138 292.756 309.457 290.349Z" fill="#BE6F72"/>
<path d="M288.75 300.446C289.115 300.671 289.565 300.926 289.966 300.737C290.13 300.638 290.269 300.503 290.373 300.342C291.068 299.415 291.647 298.407 292.099 297.339C292.177 297.189 292.22 297.023 292.227 296.853C292.227 296.464 291.88 296.178 291.558 295.953C289.832 294.853 287.976 293.971 286.033 293.327C284.429 292.72 282.751 292.191 281.05 292.343C280.41 292.386 279.786 292.558 279.215 292.848C278.643 293.138 278.137 293.541 277.725 294.033C276.509 295.595 278.546 296.069 279.822 296.634C282.776 297.978 285.973 298.756 288.75 300.446Z" fill="#6C63FF"/>
<path opacity="0.1" d="M286.836 310.779C286.815 310.917 286.828 311.059 286.872 311.192C286.916 311.325 286.991 311.446 287.091 311.545C287.267 310.681 287.036 309.77 287.219 308.9C287.486 307.593 288.756 306.609 288.866 305.296C286.538 304.84 286.854 309.368 286.836 310.779Z" fill="black"/>
<path opacity="0.2" d="M394 263.244V269.232L369.288 270.733L368.54 264.739L394 263.244Z" fill="black"/>
<path d="M284.514 272.927C286.057 271.669 285.164 269.03 286.209 267.341C286.817 266.417 287.844 265.93 288.853 265.517C290.071 264.947 291.375 264.586 292.713 264.447C293.382 264.383 294.058 264.47 294.689 264.703C295.321 264.935 295.891 265.307 296.359 265.791C296.754 266.24 297.022 266.787 297.393 267.256C297.852 267.802 298.45 268.213 299.124 268.446C299.798 268.68 300.523 268.726 301.222 268.581C302.03 268.398 302.869 267.784 302.814 266.958C302.723 266.455 302.466 265.997 302.085 265.657L300.346 263.73C298.371 261.542 296.177 259.22 293.278 258.672C291.26 258.289 289.194 258.83 287.249 259.481C286.465 259.742 285.583 260.131 285.365 260.928C285.219 261.475 285.437 262.07 285.31 262.624C285.061 263.724 283.651 264.095 282.994 265.019C282.338 265.943 282.538 267.037 282.35 268.058C282.162 269.079 281.615 270.076 281.548 271.134C281.505 271.772 281.827 272.957 282.544 273.188C283.262 273.419 284.07 272.167 284.514 272.927Z" fill="#3F3D56"/>
<path d="M302.225 266.083C301.712 263.408 300.607 260.883 298.991 258.691C297.554 256.644 295.555 255.056 293.235 254.12C292.076 253.667 290.829 253.482 289.588 253.58C288.347 253.678 287.144 254.056 286.07 254.685C284.475 255.824 283.234 257.389 282.49 259.202C280.916 262.594 280.332 266.739 282.162 269.997C282.891 269.11 284.143 269.511 285.249 269.189C286.635 268.794 287.808 267.87 289.127 267.292C293.108 265.536 297.97 266.958 302.225 266.083Z" fill="#FED253"/>
<path opacity="0.1" d="M283.092 265.894C282.952 264.8 282.861 263.53 283.639 262.752C283.677 262.704 283.726 262.666 283.782 262.641C283.838 262.615 283.899 262.603 283.961 262.606C284.015 262.623 284.065 262.652 284.108 262.69C284.151 262.727 284.185 262.773 284.21 262.825C284.659 263.533 285.041 264.282 285.353 265.062C284.9 264.957 284.426 264.991 283.992 265.159C283.559 265.327 283.186 265.621 282.921 266.004" fill="black"/>
<path opacity="0.1" d="M297.295 262.807L297.077 260.637C297.041 260.458 297.056 260.273 297.119 260.102C297.211 259.959 297.352 259.854 297.516 259.81C297.68 259.765 297.855 259.782 298.007 259.859C298.306 260.024 298.552 260.271 298.718 260.57C299.224 261.347 299.643 262.176 299.97 263.044C298.991 262.855 297.984 262.868 297.01 263.08" fill="black"/>
<path opacity="0.1" d="M302.735 350.881V355.841L298.548 356.121H276.521V350.881H302.735Z" fill="black"/>
<path d="M302.735 350.88V356.12H276.522L206.882 268.873V264.752H221.481L302.735 350.88Z" fill="#F1C0C0"/>
<path opacity="0.1" d="M302.735 350.88V356.12H276.522L206.882 268.873V264.752H221.481L302.735 350.88Z" fill="black"/>
<path opacity="0.1" d="M302.735 350.88V356.12H276.522L206.882 268.873V264.752L276.899 350.88H302.735Z" fill="black"/>
<path d="M216.01 438.328C216.056 438.575 216.051 438.828 215.994 439.072C215.937 439.317 215.831 439.547 215.682 439.748C215.532 439.95 215.343 440.118 215.125 440.243C214.908 440.368 214.667 440.446 214.418 440.474C212.728 441.045 210.935 441.611 209.738 442.905C208.541 444.2 208.304 446.601 209.738 447.653C210.471 448.095 211.313 448.325 212.169 448.315C214.922 448.504 217.791 448.467 220.289 447.3C222.076 446.474 223.759 445.063 225.723 445.191C226.738 445.252 227.819 445.726 228.725 445.264C229.631 444.802 229.886 443.513 229.892 442.437C229.915 440.191 229.576 437.956 228.889 435.818C228.798 435.526 224.933 435.301 224.471 435.21L219.785 434.602C218.897 434.487 216.983 433.818 216.284 434.559C215.585 435.301 216.01 437.447 216.01 438.328Z" fill="#6C63FF"/>
<path d="M243.975 423.156C244.173 424.25 244.496 425.319 244.935 426.341C245.586 427.994 246.418 429.751 248.011 430.553C249.457 431.277 251.232 431.015 252.703 430.328C253.317 430.074 253.855 429.666 254.265 429.143C254.739 428.316 254.951 427.364 254.873 426.414C254.873 424.061 254.733 421.63 253.657 419.539C252.733 417.715 251.123 416.147 251.098 414.129L245.561 415.199C245.265 415.227 244.983 415.339 244.747 415.521C244.571 415.706 244.45 415.935 244.394 416.183C243.803 418.458 243.661 420.826 243.975 423.156V423.156Z" fill="#6C63FF"/>
<path d="M177.854 365.408C177.623 367.366 177.72 369.463 178.741 371.153C179.762 372.842 181.914 373.961 183.774 373.286C183.869 373.262 183.958 373.219 184.037 373.159C184.115 373.1 184.18 373.025 184.229 372.94C184.279 372.734 184.251 372.518 184.15 372.332C183.329 370.14 183.397 367.715 184.339 365.572C184.46 365.293 184.722 364.964 185.007 365.074C185.127 365.134 185.223 365.233 185.281 365.353C185.575 365.863 185.722 366.443 185.706 367.031C185.621 367.564 185.604 368.105 185.658 368.642C185.773 369.165 186.332 369.657 186.819 369.432C186.959 369.346 187.081 369.232 187.176 369.097C187.271 368.962 187.337 368.81 187.372 368.648C188.727 364.727 188.113 360.442 187.493 356.339C187.498 356.245 187.483 356.15 187.448 356.063C187.412 355.975 187.358 355.897 187.289 355.832C187.22 355.768 187.138 355.72 187.048 355.69C186.959 355.661 186.864 355.652 186.77 355.664C183.901 355.378 182.333 354.692 180.692 357.36C179.282 359.609 177.854 362.703 177.854 365.408Z" fill="#6C63FF"/>
<path d="M211.391 355.433C210.541 358.971 209.684 362.551 209.629 366.186C209.644 368.45 209.814 370.711 210.139 372.952L210.778 378.216C210.996 379.991 211.209 381.76 211.519 383.516C211.717 384.421 211.825 385.344 211.841 386.27C211.782 387.183 211.637 388.089 211.41 388.975C211.028 390.836 210.814 392.728 210.772 394.628C210.705 397.667 211.082 400.707 211.319 403.746C211.792 409.803 211.721 415.89 211.106 421.933C210.86 423.565 211.215 425.23 212.103 426.62C212.463 427.058 212.76 427.545 212.984 428.067C213.44 429.459 212.376 430.851 212.103 432.279C211.928 433.393 212.202 434.531 212.865 435.443C213.528 436.355 214.526 436.966 215.64 437.142C220.502 437.72 225.498 437.458 229.88 439.683C230.342 438.334 229.333 436.802 229.795 435.428C230.087 434.577 230.889 434.024 231.436 433.307C232.171 432.214 232.537 430.914 232.482 429.599C232.503 427.881 232.198 426.175 231.582 424.572C231.065 423.234 230.324 421.915 230.366 420.481C230.366 419.775 230.616 419.034 230.33 418.384C230.134 418.01 229.868 417.678 229.546 417.405C227.73 415.415 226.613 412.885 226.367 410.202C226.13 407.539 226.216 404.857 226.623 402.214C226.92 399.698 227.322 397.041 228.92 395.078C228.179 389.124 228.614 383.083 230.202 377.298C230.36 376.763 230.61 376.143 231.157 376.015C231.374 375.993 231.593 376.023 231.796 376.104C232 376.184 232.18 376.312 232.324 376.477C233.278 377.371 233.734 378.666 234.147 379.906C234.603 381.249 235.065 382.684 234.718 384.057C234.572 384.665 234.281 385.2 234.11 385.784C233.741 386.956 233.805 388.223 234.293 389.352C234.53 389.764 234.679 390.222 234.73 390.695C234.674 391.102 234.551 391.496 234.366 391.862C234.14 392.582 234.069 393.34 234.156 394.089C234.243 394.838 234.486 395.56 234.87 396.209C235.645 397.499 236.601 398.672 237.709 399.692C237.179 402.025 237.316 404.46 238.104 406.719C238.16 406.82 238.197 406.932 238.21 407.048C238.224 407.164 238.214 407.281 238.183 407.393C238.073 407.624 237.794 407.709 237.575 407.874C236.967 408.372 237.344 409.314 237.751 409.965C238.867 411.75 240.1 413.46 241.44 415.083C242.656 416.536 242.546 419.338 244.358 419.861C245.119 420.025 245.906 420.025 246.667 419.861C248.454 419.587 250.448 419.07 251.323 417.49C251.681 416.84 251.827 416.049 252.387 415.563C252.946 415.077 253.669 414.992 253.979 414.408C254.289 413.825 253.942 413.059 254.046 412.384C254.149 411.709 254.739 411.168 254.927 410.457C255.377 408.816 253.462 407.466 253.201 405.789C252.824 403.357 255.887 401.533 255.76 399.102C255.492 393.82 255.322 388.513 255.049 383.231C254.705 378.499 254.657 373.75 254.903 369.013C255.115 366.065 255.511 362.977 254.429 360.235C252.873 356.369 248.582 354.199 244.431 353.786C240.279 353.372 236.14 354.357 232.026 355.001C225.197 356.054 218.259 356.199 211.391 355.433V355.433Z" fill="#3F3D56"/>
<path d="M223.729 297.333C229.107 297.333 233.466 292.974 233.466 287.595C233.466 282.217 229.107 277.857 223.729 277.857C218.352 277.857 213.993 282.217 213.993 287.595C213.993 292.974 218.352 297.333 223.729 297.333Z" fill="#FBBEBE"/>
<path d="M219.767 299.151C219.436 299.921 218.88 300.573 218.171 301.021C217.463 301.469 216.636 301.692 215.798 301.661C215.445 303.12 216.29 304.591 217.257 305.74C219.263 308.075 221.857 309.833 224.769 310.832C227.681 311.831 230.807 312.035 233.825 311.423C234.999 311.213 236.113 310.748 237.089 310.062C238.404 308.964 239.287 307.434 239.581 305.746C239.86 304.069 239.94 302.366 239.818 300.67C239.852 300.336 239.756 300 239.55 299.734C239.307 299.546 239.007 299.447 238.699 299.455C236.645 299.272 234.499 299.193 232.694 298.184C230.889 297.175 229.607 294.896 230.476 293.023C230.336 293.315 226.787 293.455 226.319 293.516C224.854 293.722 223.389 293.953 221.931 294.221C221.23 294.259 220.537 294.39 219.87 294.61C218.989 295.066 219.317 294.841 219.524 295.668C219.834 296.932 220.289 297.838 219.767 299.151Z" fill="#FBBEBE"/>
<path d="M227.175 305.072C225.864 305.087 224.556 304.942 223.279 304.641C221.991 304.339 220.855 303.581 220.082 302.507C219.633 301.826 219.341 300.969 218.624 300.586C217.451 299.978 216.114 301.005 215.178 301.948C214.325 302.877 213.338 303.672 212.248 304.306C210.947 304.993 209.428 305.236 208.2 306.045C207.241 306.769 206.418 307.659 205.769 308.671L197.157 320.402C193.699 325.119 190.69 330.183 187.609 335.161C184.94 339.471 183.542 344.431 181.531 349.081C181.371 349.366 181.305 349.694 181.342 350.018C181.415 350.334 181.798 350.589 182.066 350.407C181.16 351.306 181.956 352.838 181.743 354.102C181.502 354.987 180.997 355.778 180.297 356.37C181.635 356.195 182.993 356.259 184.308 356.558C185.668 356.944 186.951 357.561 188.101 358.382C188.836 358.266 188.769 356.959 189.316 356.473C189.645 356.187 190.131 356.224 190.562 356.139C192.185 355.823 192.829 353.871 194.075 352.771C195.115 351.853 196.585 351.555 197.686 350.692C199.472 349.288 199.855 346.79 200.791 344.717C201.588 342.96 202.84 341.428 203.539 339.629C203.994 338.462 204.213 337.198 204.863 336.122C205.903 334.383 207.86 333.459 209.726 332.627C210.905 332.098 212.157 331.551 213.427 331.636C213.36 334.462 213.002 337.246 213.616 340.006C213.828 340.979 214.126 341.927 214.381 342.893C215.542 347.246 215.816 351.78 215.87 356.266C218.663 355.627 221.515 355.285 224.379 355.245C226.634 355.178 228.883 355.47 231.138 355.428C233.812 355.379 236.456 354.862 239.13 354.68C241.805 354.498 244.6 354.68 246.965 355.896C246.773 352.043 246.88 348.182 247.287 344.346L247.931 338.304C248.076 336.549 248.347 334.806 248.739 333.089C249.092 331.703 249.602 330.365 249.991 328.985C251.359 324.123 251.11 318.931 250.848 313.868C250.715 311.266 249.712 308.707 248.533 306.391C248.106 305.531 247.619 304.702 247.074 303.911C245.649 301.948 243.75 300.377 241.555 299.346C239.359 298.315 236.938 297.857 234.517 298.015C234.208 298.024 233.903 298.09 233.618 298.209C233.105 298.538 232.704 299.015 232.469 299.577C231.212 301.837 229.387 303.731 227.175 305.072Z" fill="#3F3D56"/>
<path d="M215.166 290.822C215.439 290.214 216.175 289.989 216.625 289.503C217.488 288.579 217.099 287.102 217.232 285.856C217.451 284.032 218.965 282.507 220.697 281.856C222.463 281.289 224.343 281.17 226.167 281.51C227.045 281.574 227.893 281.856 228.634 282.33C228.951 282.561 229.242 282.859 229.54 283.072C230.083 283.4 230.733 283.503 231.35 283.359C231.968 283.215 232.505 282.835 232.846 282.3C230.695 279.71 228.312 276.975 225.042 276.179C223.921 275.95 222.778 275.842 221.633 275.857C220.119 275.826 218.557 275.802 217.159 276.379C215.257 277.164 213.92 278.969 213.233 280.914C212.633 282.886 212.311 284.932 212.279 286.993C212.154 288.368 212.154 289.751 212.279 291.126C212.514 293.004 213.211 294.794 214.309 296.336C214.457 296.575 214.667 296.77 214.917 296.901C217.688 298.117 214.941 291.327 215.166 290.822Z" fill="#3F3D56"/>
<path d="M232.53 280.799C232.196 277.936 230.154 275.572 227.984 273.669C226.235 272.019 224.152 270.765 221.876 269.991C219.584 269.317 216.947 269.462 214.983 270.83C213.403 271.93 212.4 273.681 211.629 275.444C210.614 277.524 210.112 279.817 210.164 282.13C210.316 284.428 211.434 286.756 213.428 287.917C214.145 286.86 215.391 286.313 216.588 285.881C221.807 283.901 227.128 282.204 232.53 280.799V280.799Z" fill="#FED253"/>
<path opacity="0.1" d="M214.096 279.608C214.291 279.608 214.418 279.808 214.515 279.972C215.01 280.744 215.435 281.557 215.786 282.404C215.075 282.556 213.853 282.726 213.5 282.1C213.312 281.784 213.537 279.577 214.096 279.608Z" fill="black"/>
<path opacity="0.1" d="M227.948 278.234C227.802 278.374 227.631 278.088 227.631 277.881V275.523C227.628 275.457 227.642 275.392 227.674 275.335C227.699 275.306 227.73 275.282 227.764 275.266C227.799 275.249 227.836 275.239 227.875 275.237C228.367 275.183 228.774 275.602 229.09 276.003C229.57 276.653 229.987 277.347 230.336 278.076L227.765 277.997" fill="black"/>
<path d="M260.032 317.289C260.592 316.758 261.189 316.269 261.819 315.824C263.503 314.7 265.539 314.256 267.429 313.539C269.319 312.822 271.24 311.661 271.975 309.776C272.343 308.598 272.463 307.356 272.328 306.129C272.345 305.615 272.254 305.104 272.06 304.628C271.829 304.207 271.5 303.848 271.1 303.582C268.535 301.685 265.095 301.533 261.91 301.728C254.889 302.163 248.007 303.882 241.604 306.798C241.266 306.909 240.969 307.121 240.753 307.405C240.629 307.669 240.572 307.959 240.589 308.25C240.476 310.043 240.709 311.841 241.276 313.545C242.115 315.709 243.841 317.453 244.564 319.66C244.892 320.651 245.002 321.702 245.288 322.699C245.522 323.729 246.131 324.635 246.995 325.24C249.396 326.675 251.663 324.748 253.328 323.253L260.032 317.289Z" fill="#3F3D56"/>
<path d="M228.592 325.709L225.51 318.986C225.058 318.055 224.669 317.094 224.343 316.111C223.991 314.938 223.821 313.722 223.492 312.543C222.411 308.616 219.682 305.346 218.351 301.498C218.266 301.151 218.095 300.831 217.852 300.568C217.658 300.431 217.436 300.338 217.202 300.296C216.967 300.254 216.727 300.264 216.497 300.325C214.637 300.647 213.184 302.063 211.483 302.866C210.693 303.23 209.842 303.474 209.052 303.893C208.657 304.08 208.307 304.35 208.026 304.685C207.744 305.019 207.539 305.411 207.423 305.832C207.234 306.762 207.696 307.656 208.085 308.561C209.738 312.294 210.115 316.464 210.188 320.549C210.243 323.296 210.103 326.244 208.48 328.451C205.362 332.706 207.356 338.955 208.523 344.103C208.663 344.711 208.827 345.368 208.924 346.012C209.027 346.818 209.073 347.631 209.064 348.443C209.064 351.173 208.912 353.987 207.769 356.461C208.897 357.061 210.14 357.414 211.416 357.495C214.945 357.944 218.488 358.26 222.046 358.443C223.161 358.548 224.284 358.49 225.383 358.273C226.687 357.92 227.836 357.143 228.65 356.064C229.463 354.986 229.894 353.667 229.874 352.316C230.069 353.999 230.427 355.829 231.649 356.996C232.871 358.163 234.651 358.339 236.311 358.431C240.993 358.679 245.689 358.547 250.35 358.036C250.648 358.022 250.94 357.954 251.213 357.835C252.113 357.385 252.162 356.145 252.089 355.148C251.955 353.282 251.815 351.416 251.59 349.562C251.4 348.38 251.302 347.185 251.299 345.988C251.391 344.756 251.595 343.535 251.906 342.34C252.721 338.547 253.365 334.675 253.091 330.791C252.983 329.845 252.945 328.892 252.976 327.94C253.134 325.794 254.264 323.752 254.052 321.618C253.444 315.345 252.952 308.908 251.201 302.854C250.885 301.772 250.484 300.611 249.542 299.991C248.326 299.176 246.619 299.602 245.227 299.085C244.574 298.781 243.953 298.412 243.373 297.985C242.114 297.197 240.67 296.753 239.185 296.696C238.067 296.653 236.821 296.903 236.146 297.802C235.834 298.309 235.627 298.873 235.539 299.462C234.657 303.17 233.624 306.835 232.591 310.501L231.6 314.014L228.944 323.448C228.683 324.451 228.859 324.761 228.592 325.709Z" fill="#6C63FF"/>
<path d="M244.133 288.902L302.924 350.692V355.932H276.71L232.53 298.263" fill="#F1C0C0"/>
<path opacity="0.1" d="M244.133 288.902L302.924 350.692V355.932H276.71L232.53 298.263" fill="black"/>
<path opacity="0.1" d="M233.466 297.449L233.655 297.516L277.087 350.692H302.924V355.932H276.71L232.53 298.264L233.466 297.449Z" fill="black"/>
<path d="M240.231 298.749C238.104 299.679 235.739 300.871 235.101 303.108C234.975 303.5 234.948 303.918 235.022 304.323C235.178 304.8 235.474 305.219 235.872 305.524C236.271 305.829 236.752 306.006 237.253 306.031C238.254 306.056 239.249 305.874 240.176 305.497L252.727 301.351C253.067 301.242 253.456 301.077 253.541 300.743C253.563 300.533 253.521 300.321 253.42 300.135C253.031 299.187 252.648 297.248 251.834 296.585C251.165 296.05 249.84 296.239 249.032 296.251C245.92 296.275 242.996 297.534 240.231 298.749Z" fill="#6C63FF"/>
<path d="M251.42 301.844C253.534 301.837 255.637 302.164 257.65 302.81C259.672 303.467 261.463 304.69 262.81 306.336C263.202 306.796 263.481 307.341 263.624 307.928C263.746 308.536 265.727 308.901 265.29 309.314C266.621 309.101 266.305 309.728 267.654 309.715C269.003 309.703 270.462 309.357 271.27 308.281C271.832 307.397 272.082 306.351 271.981 305.308C271.999 304.587 271.862 303.87 271.58 303.205C270.972 301.929 269.575 301.242 268.286 300.652L257.431 295.686C256.801 295.351 256.125 295.111 255.425 294.975C254.836 294.919 254.243 294.933 253.657 295.017L248.74 295.583C249.815 296.278 250.69 297.243 251.28 298.38C251.869 299.517 252.152 300.788 252.101 302.068" fill="#3F3D56"/>
</svg>
